<svg xmlns="http://www.w3.org/2000/svg" width="16819" height="7423" fill="none" viewBox="0 0 16819 7423"><g opacity=".9"><rect width="353" height="132" y="811" fill="#9B0000" fill-opacity=".25" rx="21"/><rect width="268" height="42" x="4109" y="2224" fill="#FFCBCB" fill-opacity=".25" rx="21"/><rect width="481" height="154" x="7294" y="3497" fill="#6CD0A0" fill-opacity=".25" rx="21"/><rect width="334" height="125" x="9954" y="4359" fill="#FF000F" fill-opacity=".25" rx="21"/><rect width="1086" height="125" x="15733" y="6297" fill="#00B35D" fill-opacity=".25" rx="21"/><rect width="166" height="253" x="187" y="1080" fill="#139A41" fill-opacity=".25" rx="21"/><rect width="613" height="158" x="2037" y="2646" fill="#9900BF" fill-opacity=".25" rx="21"/><rect width="395" height="90" x="9453" y="1318" fill="#00B2FF" fill-opacity=".25" rx="21"/><rect width="184" height="80" x="7202" y="3295" fill="#FA00FF" fill-opacity=".25" rx="21"/><rect width="540" height="187" x="1043" y="5171" fill="#F5BCFE" fill-opacity=".25" rx="21"/><rect width="908" height="174" x="9581" y="1478" fill="#18FF2F" fill-opacity=".25" rx="21"/><rect width="467" height="174" x="15577" y="6024" fill="#18FF2F" fill-opacity=".25" rx="21"/><rect width="171" height="74" x="3184" y="3651" fill="#F1FF51" fill-opacity=".25" rx="21"/><rect width="171" height="74" x="8027" y="7348" fill="#F1FF51" fill-opacity=".25" rx="21"/><rect width="296" height="88" x="1480" y="5064" fill="#CA6AE2" fill-opacity=".25" rx="21"/><rect width="126" height="564" x="13487" fill="#6A007B" fill-opacity=".5" rx="21"/><rect width="126" height="564" x="3412" y="6858" fill="#AC0404" fill-opacity=".5" rx="21"/><g opacity=".7"><rect width="216.088" height="80.804" x="15435.7" y="4275.91" fill="#9B0000" fill-opacity=".25" rx="21" transform="rotate(-180 15435.7 4275.91)"/><rect width="164.056" height="25.71" x="12920.4" y="3410.95" fill="#FFCBCB" fill-opacity=".25" rx="12.855" transform="rotate(-180 12920.4 3410.95)"/><rect width="294.443" height="94.271" x="10970.7" y="2631.68" fill="#6CD0A0" fill-opacity=".25" rx="21" transform="rotate(-180 10970.7 2631.68)"/><rect width="204.457" height="76.519" x="9342.4" y="2104.01" fill="#FF000F" fill-opacity=".25" rx="21" transform="rotate(-180 9342.4 2104.01)"/><rect width="664.793" height="76.519" x="5804.79" y="917.667" fill="#00B35D" fill-opacity=".25" rx="21" transform="rotate(-180 5804.79 917.667)"/><rect width="101.617" height="154.873" x="15321.2" y="4111.24" fill="#139A41" fill-opacity=".25" rx="21" transform="rotate(-180 15321.2 4111.24)"/><rect width="375.247" height="96.719" x="14188.8" y="3152.62" fill="#9900BF" fill-opacity=".25" rx="21" transform="rotate(-180 14188.8 3152.62)"/><rect width="241.798" height="55.093" x="9649.08" y="3965.55" fill="#00B2FF" fill-opacity=".25" rx="21" transform="rotate(-180 9649.08 3965.55)"/><rect width="112.635" height="48.972" x="11027" y="2755.34" fill="#FA00FF" fill-opacity=".25" rx="21" transform="rotate(-180 11027 2755.34)"/><rect width="330.56" height="114.472" x="14797.2" y="1606.95" fill="#F5BCFE" fill-opacity=".25" rx="21" transform="rotate(-180 14797.2 1606.95)"/><rect width="555.83" height="106.514" x="9570.73" y="3867.61" fill="#18FF2F" fill-opacity=".25" rx="21" transform="rotate(-180 9570.73 3867.61)"/><rect width="285.873" height="106.514" x="5900.29" y="1084.78" fill="#18FF2F" fill-opacity=".25" rx="21" transform="rotate(-180 5900.29 1084.78)"/><rect width="104.677" height="45.299" x="13486.6" y="2537.41" fill="#F1FF51" fill-opacity=".25" rx="21" transform="rotate(-180 13486.6 2537.41)"/><rect width="104.677" height="45.299" x="10522" y="274.299" fill="#F1FF51" fill-opacity=".25" rx="21" transform="rotate(-180 10522 274.299)"/><rect width="181.196" height="53.869" x="14529.7" y="1672.45" fill="#CA6AE2" fill-opacity=".25" rx="21" transform="rotate(-180 14529.7 1672.45)"/><rect width="77.131" height="345.252" x="7179.68" y="4772.36" fill="#6A007B" fill-opacity=".5" rx="21" transform="rotate(-180 7179.68 4772.36)"/><rect width="77.131" height="345.252" x="13347.1" y="574.251" fill="#AC0404" fill-opacity=".5" rx="21" transform="rotate(-180 13347.1 574.251)"/></g><g opacity=".5"><rect width="192.582" height="72.013" fill="#9B0000" fill-opacity=".25" rx="21" transform="matrix(1 0 0 -1 2798 6979.68)"/><rect width="146.209" height="22.913" fill="#FFCBCB" fill-opacity=".25" rx="11.457" transform="matrix(1 0 0 -1 5039.69 6208.8)"/><rect width="262.413" height="84.016" fill="#6CD0A0" fill-opacity=".25" rx="21" transform="matrix(1 0 0 -1 6777.29 5514.31)"/><rect width="182.216" height="68.195" fill="#FF000F" fill-opacity=".25" rx="21" transform="matrix(1 0 0 -1 8228.47 5044.04)"/><rect width="592.475" height="68.195" fill="#00B35D" fill-opacity=".25" rx="21" transform="matrix(1 0 0 -1 11381.2 3986.75)"/><rect width="90.562" height="138.026" fill="#139A41" fill-opacity=".25" rx="21" transform="matrix(1 0 0 -1 2900.02 6832.92)"/><rect width="334.426" height="86.198" fill="#9900BF" fill-opacity=".25" rx="21" transform="matrix(1 0 0 -1 3909.3 5978.58)"/><rect width="215.495" height="49.1" fill="#00B2FF" fill-opacity=".25" rx="21" transform="matrix(1 0 0 -1 7955.15 6703.08)"/><rect width="100.382" height="43.645" fill="#FA00FF" fill-opacity=".25" rx="21" transform="matrix(1 0 0 -1 6727.1 5624.51)"/><rect width="294.601" height="102.019" fill="#F5BCFE" fill-opacity=".25" rx="21" transform="matrix(1 0 0 -1 3367.02 4601.05)"/><rect width="495.366" height="94.927" fill="#18FF2F" fill-opacity=".25" rx="21" transform="matrix(1 0 0 -1 8024.98 6615.79)"/><rect width="254.775" height="94.927" fill="#18FF2F" fill-opacity=".25" rx="21" transform="matrix(1 0 0 -1 11296.1 4135.69)"/><rect width="93.29" height="40.371" fill="#F1FF51" fill-opacity=".25" rx="20.186" transform="matrix(1 0 0 -1 4535.05 5430.29)"/><rect width="93.29" height="40.371" fill="#F1FF51" fill-opacity=".25" rx="20.186" transform="matrix(1 0 0 -1 7177.18 3413.37)"/><rect width="161.485" height="48.009" fill="#CA6AE2" fill-opacity=".25" rx="21" transform="matrix(1 0 0 -1 3605.42 4659.42)"/><rect width="68.74" height="307.694" fill="#6A007B" fill-opacity=".5" rx="21" transform="matrix(1 0 0 -1 10155.9 7422.12)"/><rect width="68.74" height="307.694" fill="#AC0404" fill-opacity=".5" rx="21" transform="matrix(1 0 0 -1 4659.44 3680.69)"/></g></g></svg>